<svg width="180" height="30" viewBox="0 0 180 30" fill="none" xmlns="http://www.w3.org/2000/svg">
<g clip-path="url(#clip0_1_637)">
<path d="M14.7572 4.95854L29.1885 0.78125L24.9777 15.0001L29.1885 29.1788L14.7572 25.0416L0.285034 29.1788L4.53675 15.0001L0.285034 0.78125L14.7572 4.95854Z" fill="white"/>
</g>
<path d="M40.1099 25.4722V2.91669H49.2272C50.6266 2.91669 51.8728 3.19595 52.966 3.75447C54.0811 4.2915 54.9447 5.06484 55.5569 6.07446C56.191 7.06261 56.508 8.25484 56.508 9.65113V10.07C56.508 11.4663 56.1801 12.6693 55.5241 13.6789C54.8901 14.6885 54.0264 15.4619 52.9332 15.9989C51.84 16.5359 50.6047 16.8045 49.2272 16.8045H43.6519V25.4722H40.1099ZM43.6519 13.6467H48.8665C50.1127 13.6467 51.1076 13.3245 51.8509 12.68C52.5943 12.0356 52.966 11.1548 52.966 10.0378V9.71558C52.966 8.57706 52.5943 7.68558 51.8509 7.04113C51.1076 6.39669 50.1127 6.07446 48.8665 6.07446H43.6519V13.6467Z" fill="white"/>
<path d="M67.0969 25.9234C65.4789 25.9234 64.0359 25.6011 62.7678 24.9567C61.5215 24.2908 60.5376 23.3456 59.8161 22.1211C59.0946 20.8967 58.7338 19.4467 58.7338 17.7711V17.2878C58.7338 15.6122 59.0946 14.173 59.8161 12.97C60.5376 11.7456 61.5215 10.8004 62.7678 10.1345C64.0359 9.46854 65.4789 9.13558 67.0969 9.13558C68.7148 9.13558 70.1579 9.46854 71.426 10.1345C72.6941 10.8004 73.6889 11.7456 74.4105 12.97C75.132 14.173 75.4927 15.6122 75.4927 17.2878V17.7711C75.4927 19.4467 75.132 20.8967 74.4105 22.1211C73.6889 23.3456 72.6941 24.2908 71.426 24.9567C70.1579 25.6011 68.7148 25.9234 67.0969 25.9234ZM67.0969 22.9589C68.5836 22.9589 69.7862 22.4971 70.7045 21.5734C71.6446 20.6282 72.1147 19.3285 72.1147 17.6745V17.3845C72.1147 15.7304 71.6556 14.4415 70.7373 13.5178C69.819 12.5726 68.6055 12.1 67.0969 12.1C65.632 12.1 64.4294 12.5726 63.4893 13.5178C62.571 14.4415 62.1118 15.7304 62.1118 17.3845V17.6745C62.1118 19.3285 62.571 20.6282 63.4893 21.5734C64.4294 22.4971 65.632 22.9589 67.0969 22.9589Z" fill="white"/>
<path d="M86.3232 25.9234C84.268 25.9234 82.5626 25.4722 81.207 24.57C79.8514 23.6678 79.0206 22.3037 78.7145 20.4778L81.8629 19.7367C82.0378 20.6174 82.333 21.3156 82.7484 21.8311C83.1638 22.3467 83.6776 22.7119 84.2898 22.9267C84.9239 23.1415 85.6017 23.2489 86.3232 23.2489C87.3946 23.2489 88.2145 23.0448 88.7829 22.6367C89.3733 22.2285 89.6684 21.7022 89.6684 21.0578C89.6684 20.4134 89.3951 19.9408 88.8485 19.64C88.3019 19.3393 87.493 19.0922 86.4216 18.8989L85.3065 18.7056C84.2133 18.5122 83.2185 18.233 82.3221 17.8678C81.4256 17.5026 80.715 16.9978 80.1903 16.3534C79.6656 15.7089 79.4032 14.8819 79.4032 13.8722C79.4032 12.3685 79.9717 11.2085 81.1086 10.3922C82.2455 9.55447 83.7542 9.13558 85.6345 9.13558C87.4492 9.13558 88.936 9.54373 90.0948 10.36C91.2755 11.1548 92.0407 12.2397 92.3905 13.6145L89.2421 14.4845C89.0453 13.5178 88.6299 12.8411 87.9958 12.4545C87.3618 12.0463 86.5747 11.8422 85.6345 11.8422C84.7162 11.8422 83.9947 12.0141 83.4699 12.3578C82.9452 12.68 82.6828 13.1419 82.6828 13.7434C82.6828 14.3878 82.9343 14.8604 83.4371 15.1611C83.9619 15.4619 84.6615 15.6874 85.5361 15.8378L86.684 16.0311C87.8428 16.2245 88.9032 16.493 89.8652 16.8367C90.8272 17.1804 91.5816 17.6745 92.1282 18.3189C92.6966 18.9634 92.9809 19.8226 92.9809 20.8967C92.9809 22.4863 92.3796 23.7215 91.1771 24.6022C89.9745 25.483 88.3566 25.9234 86.3232 25.9234Z" fill="white"/>
<path d="M96.9292 25.4722V9.58669H100.307V25.4722H96.9292ZM98.6347 7.4278C97.9787 7.4278 97.4212 7.22373 96.962 6.81558C96.5248 6.38595 96.3061 5.83817 96.3061 5.17224C96.3061 4.50632 96.5248 3.96928 96.962 3.56113C97.4212 3.1315 97.9787 2.91669 98.6347 2.91669C99.3124 2.91669 99.87 3.1315 100.307 3.56113C100.745 3.96928 100.963 4.50632 100.963 5.17224C100.963 5.83817 100.745 6.38595 100.307 6.81558C99.87 7.22373 99.3124 7.4278 98.6347 7.4278Z" fill="white"/>
<path d="M111.388 25.4722C110.404 25.4722 109.617 25.1822 109.026 24.6022C108.458 24.0222 108.174 23.2489 108.174 22.2822V12.39H103.713V9.58669H108.174V4.33447H111.552V9.58669H116.373V12.39H111.552V21.7022C111.552 22.3467 111.858 22.6689 112.47 22.6689H115.848V25.4722H111.388Z" fill="white"/>
<path d="M120.341 25.4722V9.58669H123.719V25.4722H120.341ZM122.047 7.4278C121.391 7.4278 120.833 7.22373 120.374 6.81558C119.937 6.38595 119.718 5.83817 119.718 5.17224C119.718 4.50632 119.937 3.96928 120.374 3.56113C120.833 3.1315 121.391 2.91669 122.047 2.91669C122.725 2.91669 123.282 3.1315 123.719 3.56113C124.157 3.96928 124.375 4.50632 124.375 5.17224C124.375 5.83817 124.157 6.38595 123.719 6.81558C123.282 7.22373 122.725 7.4278 122.047 7.4278Z" fill="white"/>
<path d="M132.471 25.4722L127.027 9.58669H130.602L134.898 23.0234H135.423L139.719 9.58669H143.294L137.85 25.4722H132.471Z" fill="white"/>
<path d="M152.771 25.7622C151.546 25.7622 150.453 25.4937 149.491 24.9567C148.529 24.4197 147.775 23.6571 147.228 22.6689C146.681 21.6808 146.408 20.4993 146.408 19.1245V9.58669H149.786V18.8989C149.786 20.2737 150.136 21.2941 150.836 21.96C151.535 22.6045 152.508 22.9267 153.755 22.9267C155.132 22.9267 156.236 22.4756 157.067 21.5734C157.92 20.6497 158.346 19.3285 158.346 17.61V9.58669H161.724V25.4722H158.412V23.0878H157.887C157.581 23.7322 157.034 24.3445 156.247 24.9245C155.46 25.483 154.301 25.7622 152.771 25.7622Z" fill="white"/>
<path d="M173.342 25.9234C171.287 25.9234 169.582 25.4722 168.226 24.57C166.871 23.6678 166.04 22.3037 165.734 20.4778L168.882 19.7367C169.057 20.6174 169.352 21.3156 169.768 21.8311C170.183 22.3467 170.697 22.7119 171.309 22.9267C171.943 23.1415 172.621 23.2489 173.342 23.2489C174.414 23.2489 175.234 23.0448 175.802 22.6367C176.392 22.2285 176.688 21.7022 176.688 21.0578C176.688 20.4134 176.414 19.9408 175.868 19.64C175.321 19.3393 174.512 19.0922 173.441 18.8989L172.326 18.7056C171.232 18.5122 170.238 18.233 169.341 17.8678C168.445 17.5026 167.734 16.9978 167.209 16.3534C166.685 15.7089 166.422 14.8819 166.422 13.8722C166.422 12.3685 166.991 11.2085 168.128 10.3922C169.265 9.55447 170.773 9.13558 172.654 9.13558C174.468 9.13558 175.955 9.54373 177.114 10.36C178.295 11.1548 179.06 12.2397 179.41 13.6145L176.261 14.4845C176.064 13.5178 175.649 12.8411 175.015 12.4545C174.381 12.0463 173.594 11.8422 172.654 11.8422C171.735 11.8422 171.014 12.0141 170.489 12.3578C169.964 12.68 169.702 13.1419 169.702 13.7434C169.702 14.3878 169.953 14.8604 170.456 15.1611C170.981 15.4619 171.681 15.6874 172.555 15.8378L173.703 16.0311C174.862 16.2245 175.922 16.493 176.884 16.8367C177.846 17.1804 178.601 17.6745 179.147 18.3189C179.716 18.9634 180 19.8226 180 20.8967C180 22.4863 179.399 23.7215 178.196 24.6022C176.994 25.483 175.376 25.9234 173.342 25.9234Z" fill="white"/>
<defs>
<clipPath id="clip0_1_637">
<rect width="29.5167" height="29" fill="white" transform="translate(0 0.5)"/>
</clipPath>
</defs>
</svg>
